<?xml version="1.0" standalone="no"?>
<!DOCTYPE svg PUBLIC "-//W3C//DTD SVG 20010904//EN"
 "http://www.w3.org/TR/2001/REC-SVG-20010904/DTD/svg10.dtd">
<svg version="1.0" xmlns="http://www.w3.org/2000/svg"
 width="511.000000pt" height="511.000000pt" viewBox="0 0 511.000000 511.000000"
 preserveAspectRatio="xMidYMid meet">
<metadata>
Created by potrace 1.14, written by Peter Selinger 2001-2017
</metadata>
<g transform="translate(0.000000,511.000000) scale(0.100000,-0.100000)"
fill="#000000" stroke="none">
<path d="M2345 5080 c-27 -4 -68 -10 -90 -13 -128 -19 -299 -67 -425 -120
-102 -42 -253 -120 -297 -153 -17 -13 -34 -24 -38 -24 -3 0 -11 -4 -18 -10 -7
-5 -48 -37 -92 -72 -195 -151 -391 -377 -494 -572 -17 -33 -35 -64 -39 -70
-15 -19 -79 -177 -111 -271 -29 -88 -43 -142 -56 -214 -3 -19 -7 -37 -9 -40
-2 -3 -7 -35 -11 -71 -4 -36 -9 -76 -11 -90 -6 -36 -5 -340 0 -348 2 -4 8 -35
11 -67 4 -33 9 -63 11 -66 2 -3 6 -20 9 -37 12 -68 79 -284 121 -392 49 -122
194 -427 246 -513 17 -29 46 -79 66 -112 161 -276 396 -614 646 -930 61 -77
113 -142 116 -145 3 -3 37 -43 75 -90 38 -47 71 -87 74 -90 3 -3 35 -39 71
-80 36 -41 75 -86 87 -100 12 -14 30 -34 40 -46 33 -38 197 -216 259 -280 34
-35 67 -64 74 -64 7 0 40 28 72 62 33 35 80 86 106 113 54 57 223 244 235 260
4 5 24 28 43 50 73 82 362 436 439 538 88 116 93 122 182 246 34 47 66 91 70
96 16 20 181 271 223 340 96 155 186 318 255 460 73 150 178 395 169 395 -3 0
0 9 6 21 6 11 13 28 16 37 2 9 17 67 34 127 16 61 32 128 36 150 3 22 10 60
14 85 11 55 10 399 -1 449 -4 20 -10 54 -14 76 -16 105 -67 292 -105 380 -193
455 -496 786 -911 998 -142 72 -327 139 -454 163 -22 5 -42 9 -45 9 -8 2 -72
14 -110 21 -54 9 -419 12 -475 4z"/>
</g>
</svg>
